<svg width="33" height="32" viewBox="0 0 33 32" fill="none" xmlns="http://www.w3.org/2000/svg">
<path d="M24.2652 30.3333C22.7585 30.3333 21.1719 29.9733 19.5319 29.28C17.9319 28.6 16.3185 27.6667 14.7452 26.5333C13.1852 25.3867 11.6785 24.1067 10.2519 22.7067C8.83854 21.28 7.55854 19.7733 6.42521 18.2267C5.27854 16.6267 4.35854 15.0267 3.70521 13.48C3.01187 11.8267 2.66521 10.2267 2.66521 8.71999C2.66521 7.67999 2.85187 6.69332 3.21187 5.77332C3.58521 4.82666 4.18521 3.94666 4.99854 3.18666C6.02521 2.17332 7.19854 1.66666 8.45187 1.66666C8.97187 1.66666 9.50521 1.78666 9.95854 1.99999C10.4785 2.23999 10.9185 2.59999 11.2385 3.07999L14.3319 7.43999C14.6119 7.82666 14.8252 8.19999 14.9719 8.57332C15.1452 8.97332 15.2385 9.37332 15.2385 9.75999C15.2385 10.2667 15.0919 10.76 14.8119 11.2267C14.6119 11.5867 14.3052 11.9733 13.9185 12.36L13.0119 13.3067C13.0252 13.3467 13.0385 13.3733 13.0519 13.4C13.2119 13.68 13.5319 14.16 14.1452 14.88C14.7985 15.6267 15.4119 16.3067 16.0252 16.9333C16.8119 17.7067 17.4652 18.32 18.0785 18.8267C18.8385 19.4667 19.3319 19.7867 19.6252 19.9333L19.5985 20L20.5719 19.04C20.9852 18.6267 21.3852 18.32 21.7719 18.12C22.5052 17.6667 23.4385 17.5867 24.3719 17.9733C24.7185 18.12 25.0919 18.32 25.4919 18.6L29.9185 21.7467C30.4119 22.08 30.7719 22.5067 30.9852 23.0133C31.1852 23.52 31.2785 23.9867 31.2785 24.4533C31.2785 25.0933 31.1319 25.7333 30.8519 26.3333C30.5719 26.9333 30.2252 27.4533 29.7852 27.9333C29.0252 28.7733 28.1985 29.3733 27.2385 29.76C26.3185 30.1333 25.3185 30.3333 24.2652 30.3333ZM8.45187 3.66666C7.71854 3.66666 7.03854 3.98666 6.38521 4.62666C5.77187 5.19999 5.34521 5.82666 5.07854 6.50666C4.79854 7.19999 4.66521 7.93332 4.66521 8.71999C4.66521 9.95999 4.95854 11.3067 5.54521 12.6933C6.14521 14.1067 6.98521 15.5733 8.05187 17.04C9.11854 18.5067 10.3319 19.9333 11.6652 21.28C12.9985 22.6 14.4385 23.8267 15.9185 24.9067C17.3585 25.96 18.8385 26.8133 20.3052 27.4267C22.5852 28.4 24.7185 28.6267 26.4785 27.8933C27.1585 27.6133 27.7585 27.1867 28.3052 26.5733C28.6119 26.24 28.8519 25.88 29.0519 25.4533C29.2119 25.12 29.2919 24.7733 29.2919 24.4267C29.2919 24.2133 29.2519 24 29.1452 23.76C29.1052 23.68 29.0252 23.5333 28.7719 23.36L24.3452 20.2133C24.0785 20.0267 23.8385 19.8933 23.6119 19.8C23.3185 19.68 23.1985 19.56 22.7452 19.84C22.4785 19.9733 22.2385 20.1733 21.9719 20.44L20.9585 21.44C20.4385 21.9467 19.6385 22.0667 19.0252 21.84L18.6652 21.68C18.1185 21.3867 17.4785 20.9333 16.7719 20.3333C16.1319 19.7867 15.4385 19.1467 14.5985 18.32C13.9452 17.6533 13.2919 16.9467 12.6119 16.16C11.9852 15.4267 11.5319 14.8 11.2519 14.28L11.0919 13.88C11.0119 13.5733 10.9852 13.4 10.9852 13.2133C10.9852 12.7333 11.1585 12.3067 11.4919 11.9733L12.4919 10.9333C12.7585 10.6667 12.9585 10.4133 13.0919 10.1867C13.1985 10.0133 13.2385 9.86666 13.2385 9.73332C13.2385 9.62666 13.1985 9.46666 13.1319 9.30666C13.0385 9.09332 12.8919 8.85332 12.7052 8.59999L9.61187 4.22666C9.47854 4.03999 9.31854 3.90666 9.11854 3.81332C8.90521 3.71999 8.67854 3.66666 8.45187 3.66666ZM19.5985 20.0133L19.3852 20.92L19.7452 19.9867C19.6785 19.9733 19.6252 19.9867 19.5985 20.0133Z" fill="url(#paint0_linear_1339_376)"/>
<defs>
<linearGradient id="paint0_linear_1339_376" x1="16.9719" y1="1.66666" x2="16.9719" y2="30.3333" gradientUnits="userSpaceOnUse">
<stop stop-color="#2F6ECB"/>
<stop offset="1" stop-color="#0469FF"/>
</linearGradient>
</defs>
</svg>
