<svg width="24" height="25" viewBox="0 0 24 25" fill="none" xmlns="http://www.w3.org/2000/svg">
<path d="M15 22.7762H9C3.57 22.7762 1.25 20.4562 1.25 15.0262V9.02618C1.25 3.59618 3.57 1.27618 9 1.27618H15C20.43 1.27618 22.75 3.59618 22.75 9.02618V15.0262C22.75 20.4562 20.43 22.7762 15 22.7762ZM9 2.77618C4.39 2.77618 2.75 4.41618 2.75 9.02618V15.0262C2.75 19.6362 4.39 21.2762 9 21.2762H15C19.61 21.2762 21.25 19.6362 21.25 15.0262V9.02618C21.25 4.41618 19.61 2.77618 15 2.77618H9Z" fill="#292D32"/>
<path d="M9 10.7762C7.48 10.7762 6.25 9.54618 6.25 8.02618C6.25 6.50618 7.48 5.27618 9 5.27618C10.52 5.27618 11.75 6.50618 11.75 8.02618C11.75 9.54618 10.52 10.7762 9 10.7762ZM9 6.77618C8.31 6.77618 7.75 7.33618 7.75 8.02618C7.75 8.71618 8.31 9.27618 9 9.27618C9.69 9.27618 10.25 8.71618 10.25 8.02618C10.25 7.33618 9.69 6.77618 9 6.77618Z" fill="#292D32"/>
<path d="M2.66999 19.7262C2.42999 19.7262 2.18999 19.6062 2.04999 19.3962C1.81999 19.0562 1.90999 18.5862 2.25999 18.3562L7.18999 15.0462C8.26999 14.3162 9.75999 14.4062 10.74 15.2362L11.07 15.5262C11.57 15.9562 12.42 15.9562 12.91 15.5262L17.07 11.9562C18.13 11.0462 19.8 11.0462 20.87 11.9562L22.5 13.3562C22.81 13.6262 22.85 14.0962 22.58 14.4162C22.31 14.7262 21.84 14.7662 21.52 14.4962L19.89 13.0962C19.39 12.6662 18.54 12.6662 18.04 13.0962L13.88 16.6662C12.82 17.5762 11.15 17.5762 10.08 16.6662L9.74999 16.3762C9.28999 15.9862 8.52999 15.9462 8.01999 16.2962L3.08999 19.6062C2.95999 19.6862 2.80999 19.7262 2.66999 19.7262Z" fill="#292D32"/>
</svg>
