<svg width="24" height="25" viewBox="0 0 24 25" fill="none" xmlns="http://www.w3.org/2000/svg">
<path d="M16.4299 1.98067C15.1419 2.01367 13.8989 2.60866 12.8099 3.69866L11.2809 5.22866C10.8909 5.61866 10.8909 6.24366 11.2809 6.63366C11.6709 7.02366 12.3269 7.02366 12.7169 6.63366L14.2139 5.10366C15.6629 3.65366 17.2699 3.50866 18.8629 5.10366C20.4569 6.69766 20.3119 8.30567 18.8629 9.75567L15.8369 12.7847C14.3879 14.2347 12.7809 14.3787 11.1879 12.7847L10.7509 12.3477C9.80989 11.4057 8.4049 12.8107 9.3469 13.7527L9.7839 14.1897C12.2199 16.6277 15.0629 16.3687 17.2409 14.1897L20.2669 11.1607C22.4449 8.98166 22.7039 6.13666 20.2669 3.69866C19.0489 2.47966 17.7169 1.94867 16.4299 1.98067ZM10.1889 8.03866C8.9879 8.11666 7.81889 8.69267 6.75689 9.75567L3.73089 12.7847C1.29389 15.2227 1.55289 18.0677 3.73089 20.2467C5.90789 22.4257 8.75189 22.6847 11.1879 20.2467L12.7169 18.7167C13.1069 18.3267 13.1069 17.7017 12.7169 17.3117C12.3269 16.9217 11.6709 16.9217 11.2809 17.3117L9.7839 18.8417C8.1899 20.4367 6.5839 20.2917 5.13489 18.8417C3.68589 17.3917 3.54089 15.7847 5.13489 14.1897L8.1609 11.1607C8.8959 10.4257 9.6219 10.0817 10.3139 10.0367C11.1509 9.98167 12.0289 10.3787 12.8099 11.1607L13.2469 11.5977C13.6369 11.9877 14.2609 11.9877 14.6509 11.5977C15.0409 11.2077 15.0409 10.5827 14.6509 10.1927L14.2139 9.75567C13.0569 8.59767 11.6629 7.94166 10.1889 8.03866Z" fill="#292D32"/>
</svg>
