<svg width="33" height="33" viewBox="0 0 33 33" fill="none" xmlns="http://www.w3.org/2000/svg">
<path d="M21.6304 26.9578C21.2837 26.9578 20.9237 26.9445 20.5371 26.9045C19.8437 26.8512 19.0571 26.7178 18.2437 26.5178L16.0037 25.9845C9.85706 24.5312 7.84372 21.2778 9.28372 15.1445L10.5904 9.55783C10.8837 8.29116 11.2304 7.2645 11.6571 6.41116C13.9504 1.67783 18.3371 2.1045 21.4571 2.83783L23.6837 3.35783C26.8037 4.09116 28.7771 5.25116 29.8837 7.0245C30.9771 8.79783 31.1504 11.0778 30.4171 14.1978L29.1104 19.7712C27.9637 24.6512 25.5771 26.9578 21.6304 26.9578ZM18.0437 4.3845C15.8171 4.3845 14.4037 5.3045 13.4571 7.27783C13.1104 7.99783 12.8037 8.89116 12.5371 10.0112L11.2304 15.5978C10.0437 20.6378 11.4171 22.8378 16.4571 24.0378L18.6971 24.5712C19.4171 24.7445 20.0971 24.8512 20.7104 24.9045C24.3371 25.2645 26.1371 23.6778 27.1504 19.3178L28.4571 13.7445C29.0571 11.1712 28.9771 9.37116 28.1771 8.07783C27.3771 6.7845 25.8037 5.9045 23.2171 5.3045L20.9904 4.7845C19.8837 4.51783 18.8971 4.3845 18.0437 4.3845Z" fill="#F4BE5E"/>
<path d="M11.6569 29.7178C8.2302 29.7178 6.04353 27.6645 4.64353 23.3312L2.93687 18.0645C1.04353 12.1978 2.73687 8.89117 8.57687 6.99784L10.6835 6.31784C11.3769 6.1045 11.8969 5.95784 12.3635 5.87784C12.7502 5.79784 13.1235 5.9445 13.3502 6.25117C13.5769 6.55784 13.6169 6.95784 13.4569 7.3045C13.1102 8.01117 12.8035 8.9045 12.5502 10.0245L11.2435 15.6112C10.0569 20.6512 11.4302 22.8512 16.4702 24.0512L18.7102 24.5845C19.4302 24.7578 20.1102 24.8645 20.7235 24.9178C21.1502 24.9578 21.4969 25.2512 21.6169 25.6645C21.7235 26.0778 21.5635 26.5045 21.2169 26.7445C20.3369 27.3445 19.2302 27.8512 17.8302 28.3045L15.7235 28.9978C14.1902 29.4778 12.8569 29.7178 11.6569 29.7178ZM10.9235 8.3445L9.20353 8.9045C4.44353 10.4378 3.3102 12.6778 4.84353 17.4512L6.5502 22.7178C8.09687 27.4778 10.3369 28.6245 15.0969 27.0912L17.2035 26.3978C17.2835 26.3712 17.3502 26.3445 17.4302 26.3178L16.0169 25.9845C9.8702 24.5312 7.85687 21.2778 9.29687 15.1445L10.6035 9.55784C10.6969 9.13117 10.8035 8.71784 10.9235 8.3445Z" fill="#F4BE5E"/>
<path d="M23.8704 14.0645C23.7904 14.0645 23.7104 14.0512 23.617 14.0378L17.1504 12.3978C16.617 12.2645 16.297 11.7178 16.4304 11.1845C16.5637 10.6512 17.1104 10.3312 17.6437 10.4645L24.1104 12.1045C24.6437 12.2378 24.9637 12.7845 24.8304 13.3178C24.7237 13.7578 24.3104 14.0645 23.8704 14.0645Z" fill="#F4BE5E"/>
<path d="M19.9639 18.5712C19.8839 18.5712 19.8039 18.5578 19.7105 18.5445L15.8305 17.5578C15.2972 17.4245 14.9772 16.8778 15.1105 16.3445C15.2439 15.8112 15.7905 15.4912 16.3239 15.6245L20.2039 16.6112C20.7372 16.7445 21.0572 17.2912 20.9239 17.8245C20.8172 18.2778 20.4172 18.5712 19.9639 18.5712Z" fill="#F4BE5E"/>
</svg>
