<svg width="25" height="25" viewBox="0 0 25 25" fill="none" xmlns="http://www.w3.org/2000/svg">
<path d="M12.1602 22.8822C6.23016 22.8822 1.41016 18.0622 1.41016 12.1322C1.41016 6.20221 6.23016 1.38221 12.1602 1.38221C18.0902 1.38221 22.9102 6.20221 22.9102 12.1322C22.9102 18.0622 18.0902 22.8822 12.1602 22.8822ZM12.1602 2.88221C7.06016 2.88221 2.91016 7.03221 2.91016 12.1322C2.91016 17.2322 7.06016 21.3822 12.1602 21.3822C17.2602 21.3822 21.4102 17.2322 21.4102 12.1322C21.4102 7.03221 17.2602 2.88221 12.1602 2.88221Z" fill="#8C1BE5"/>
<path d="M10.7401 15.7122C10.5401 15.7122 10.3501 15.6322 10.2101 15.4922L7.3801 12.6622C7.0901 12.3722 7.0901 11.8922 7.3801 11.6022C7.6701 11.3122 8.1501 11.3122 8.4401 11.6022L10.7401 13.9022L15.8801 8.76222C16.1701 8.47222 16.6501 8.47222 16.9401 8.76222C17.2301 9.05222 17.2301 9.53222 16.9401 9.82222L11.2701 15.4922C11.1301 15.6322 10.9401 15.7122 10.7401 15.7122Z" fill="#8C1BE5"/>
</svg>
