<svg width="24" height="25" viewBox="0 0 24 25" fill="none" xmlns="http://www.w3.org/2000/svg">
<path d="M7.46979 4.85956C7.06879 4.86056 6.64877 5.08355 6.50177 5.54755L2.06379 19.5475C1.89679 20.0735 2.16279 20.6295 2.68878 20.7975C3.21478 20.9645 3.77178 20.6985 3.93878 20.1725L5.31378 15.8595H9.65778L11.0638 20.1725C11.2348 20.6975 11.7888 20.9675 12.3138 20.7975C12.8388 20.6265 13.1088 20.0725 12.9388 19.5475L8.40778 5.54755C8.25778 5.08455 7.87179 4.85856 7.46979 4.85956ZM17.5638 8.85956C16.0358 8.85956 14.5728 10.0265 14.0638 11.5475C13.8888 12.0705 14.1648 12.6215 14.6888 12.7975C15.2128 12.9725 15.7638 12.6955 15.9388 12.1725C16.1848 11.4375 16.9308 10.8596 17.5638 10.8596H18.4388C19.2698 10.8596 20.0018 11.7236 20.0018 12.8596V13.8595C19.1158 13.8595 18.0198 13.8595 17.5638 13.8595C15.5978 13.8595 14.0018 15.4205 14.0018 17.3595C14.0018 19.2995 15.5978 20.8625 17.5638 20.8595C17.6138 20.8595 17.9338 20.8605 18.0328 20.8595C18.7998 20.8515 19.5018 20.5955 20.1268 20.2035C20.2738 20.5725 20.5798 20.8595 21.0018 20.8595C21.5538 20.8595 22.0018 20.4115 22.0018 19.8595V16.8595C22.0038 16.6515 22.0018 14.9365 22.0018 14.8595V12.8596C22.0018 10.6816 20.4488 8.85956 18.4388 8.85956H17.5638ZM7.46979 9.14056L9.00177 13.8595H5.96979L7.46979 9.14056ZM17.5638 15.8595C18.0198 15.8595 19.1188 15.8595 20.0018 15.8595C20.0018 16.3135 20.0028 16.7315 20.0018 16.8285C19.9848 18.0635 19.0648 18.8485 18.0018 18.8595C17.9328 18.8605 17.6468 18.8595 17.5638 18.8595C16.6918 18.8605 16.0018 18.1825 16.0018 17.3595C16.0018 16.5375 16.6898 15.8595 17.5638 15.8595Z" fill="#23242A"/>
</svg>
